<svg width="26" height="26" viewBox="0 0 26 26" fill="none" xmlns="http://www.w3.org/2000/svg">
<path d="M8.93913 3.65625C8.93913 3.11753 9.15314 2.60087 9.53407 2.21994C9.915 1.83901 10.4317 1.625 10.9704 1.625H15.0329C15.509 1.62494 15.97 1.79212 16.3354 2.09736C16.7008 2.40261 16.9474 2.8265 17.032 3.29503C17.1167 3.76356 17.0341 4.24694 16.7986 4.66076C16.5632 5.07459 16.1898 5.39255 15.7438 5.55913C15.9063 6.38381 16.4588 7.0655 17.2941 7.89262C18.2427 8.58001 19.012 9.48547 19.5372 10.5326C20.0624 11.5797 20.328 12.7378 20.3117 13.9092V13.9311L20.3125 13.975V21.125C20.3124 21.7373 20.1394 22.3371 19.8134 22.8553C19.4873 23.3735 19.0215 23.7891 18.4696 24.0542C17.9177 24.3193 17.3022 24.4231 16.6938 24.3536C16.0855 24.2842 15.5092 24.0443 15.0313 23.6616C14.4554 24.1242 13.7387 24.3759 13 24.375C12.2614 24.3759 11.5446 24.1242 10.9688 23.6616C10.4908 24.0443 9.91449 24.2842 9.30617 24.3536C8.69786 24.4231 8.0823 24.3193 7.5304 24.0542C6.97849 23.7891 6.51269 23.3735 6.18665 22.8553C5.86061 22.3371 5.68758 21.7373 5.68751 21.125V13.8117C5.68521 12.0558 6.31709 10.3581 7.46688 9.03094C7.74346 8.71073 8.0474 8.41522 8.37526 8.14775C9.36244 7.19225 10.0198 6.45775 10.1912 5.53312C9.82034 5.37908 9.50347 5.11857 9.28062 4.78451C9.05776 4.45045 8.93893 4.05782 8.93913 3.65625ZM10.9704 3.25C10.8626 3.25 10.7593 3.2928 10.6831 3.36899C10.6069 3.44517 10.5641 3.54851 10.5641 3.65625C10.5641 3.76399 10.6069 3.86733 10.6831 3.94351C10.7593 4.0197 10.8626 4.0625 10.9704 4.0625H15.0329C15.1406 4.0625 15.244 4.0197 15.3201 3.94351C15.3963 3.86733 15.4391 3.76399 15.4391 3.65625C15.4391 3.54851 15.3963 3.44517 15.3201 3.36899C15.244 3.2928 15.1406 3.25 15.0329 3.25H10.9704ZM9.89057 8.9375H16.0404C15.2116 8.10713 14.3934 7.14837 14.1456 5.85H11.7845C11.5375 7.14269 10.7226 8.10469 9.89057 8.9375ZM7.31251 21.125C7.31251 21.4741 7.42496 21.814 7.6332 22.0942C7.84143 22.3744 8.13438 22.5801 8.46866 22.6809C8.80294 22.7816 9.16077 22.772 9.48916 22.6535C9.81756 22.5349 10.099 22.3138 10.2919 22.0228C10.3661 21.9112 10.4667 21.8196 10.5848 21.7563C10.7028 21.693 10.8348 21.6598 10.9688 21.6598C11.1028 21.6598 11.2347 21.693 11.3528 21.7563C11.4708 21.8196 11.5714 21.9112 11.6456 22.0228C11.7935 22.2467 11.9947 22.4305 12.231 22.5576C12.4674 22.6847 12.7316 22.7513 13 22.7513C13.2684 22.7513 13.5326 22.6847 13.769 22.5576C14.0053 22.4305 14.2065 22.2467 14.3544 22.0228C14.4286 21.9112 14.5292 21.8196 14.6473 21.7563C14.7653 21.693 14.8973 21.6598 15.0313 21.6598C15.1653 21.6598 15.2972 21.693 15.4153 21.7563C15.5333 21.8196 15.6339 21.9112 15.7081 22.0228C15.901 22.3138 16.1825 22.5349 16.5108 22.6535C16.8392 22.772 17.1971 22.7816 17.5314 22.6809C17.8656 22.5801 18.1586 22.3744 18.3668 22.0942C18.5751 21.814 18.6875 21.4741 18.6875 21.125V19.5H7.31251V21.125Z" fill="#F8F8F8"/>
</svg>
