<svg width="28" height="25" viewBox="0 0 28 25" fill="none" xmlns="http://www.w3.org/2000/svg">
<path d="M3.7642 9.57617C3.60457 9.39489 3.49101 9.18288 3.43187 8.95574C3.37274 8.7286 3.36953 8.49211 3.42249 8.26367C4.20854 4.83398 8.46358 2.34375 13.5417 2.34375C18.6198 2.34375 22.8749 4.83398 23.6609 8.26367C23.7145 8.49228 23.7117 8.72906 23.6529 8.95655C23.5941 9.18404 23.4806 9.39644 23.321 9.57808C23.1614 9.75972 22.9597 9.90597 22.7307 10.006C22.5016 10.1061 22.2512 10.1574 21.9978 10.1562H5.08557C4.83234 10.157 4.58217 10.1052 4.35348 10.0048C4.12479 9.90442 3.92342 9.75794 3.7642 9.57617ZM24.2544 14.8906L19.9031 16.3555L15.975 14.8994C15.7733 14.825 15.5483 14.825 15.3466 14.8994L11.4322 16.3457L7.51143 14.8994C7.31841 14.8282 7.10377 14.8251 6.90841 14.8906L2.25346 16.4531C2.05672 16.5331 1.9003 16.6791 1.81596 16.8616C1.73161 17.0441 1.72565 17.2494 1.7993 17.4358C1.87294 17.6222 2.02066 17.7758 2.21248 17.8653C2.40431 17.9549 2.62585 17.9737 2.83215 17.918L4.23181 17.4502V17.9687C4.23181 19.0048 4.67766 19.9983 5.47127 20.7309C6.26488 21.4634 7.34125 21.875 8.46358 21.875H18.6198C19.7422 21.875 20.8185 21.4634 21.6121 20.7309C22.4058 19.9983 22.8516 19.0048 22.8516 17.9687V17.0244L24.8331 16.3594C24.9442 16.3294 25.0475 16.2786 25.1365 16.2103C25.2255 16.142 25.2984 16.0575 25.3507 15.9621C25.4029 15.8668 25.4334 15.7625 25.4403 15.6558C25.4471 15.5492 25.4302 15.4423 25.3905 15.3419C25.3509 15.2415 25.2893 15.1497 25.2097 15.0721C25.13 14.9946 25.034 14.9329 24.9275 14.891C24.821 14.849 24.7063 14.8277 24.5906 14.8283C24.4748 14.8289 24.3604 14.8515 24.2544 14.8945V14.8906ZM2.5391 13.2812H24.5443C24.7688 13.2812 24.9841 13.1989 25.1428 13.0524C25.3015 12.9059 25.3907 12.7072 25.3907 12.5C25.3907 12.2928 25.3015 12.0941 25.1428 11.9476C24.9841 11.8011 24.7688 11.7187 24.5443 11.7187H2.5391C2.31464 11.7187 2.09936 11.8011 1.94064 11.9476C1.78192 12.0941 1.69275 12.2928 1.69275 12.5C1.69275 12.7072 1.78192 12.9059 1.94064 13.0524C2.09936 13.1989 2.31464 13.2812 2.5391 13.2812Z" fill="#F8F8F8"/>
</svg>
