<svg width="27" height="28" viewBox="0 0 27 28" fill="none" xmlns="http://www.w3.org/2000/svg">
<g clipPath="url(#clip0_20_370)">
<path d="M0.576162 13.4426C0.575529 15.7289 1.1729 17.9612 2.3088 19.9288L0.467529 26.6516L7.34747 24.8477C9.25037 25.8836 11.3824 26.4264 13.549 26.4266H13.5547C20.7071 26.4266 26.5293 20.6065 26.5323 13.4529C26.5337 9.98641 25.185 6.72679 22.7345 4.27443C20.2845 1.82229 17.026 0.471125 13.5542 0.469543C6.40099 0.469543 0.579221 6.28931 0.576268 13.4426" fill="url(#paint0_linear_20_370)"/>
<path d="M0.112852 13.4384C0.112113 15.8069 0.730898 18.1191 1.9073 20.1572L0 27.121L7.12663 25.2524C9.09025 26.323 11.3011 26.8875 13.5507 26.8883H13.5565C20.9655 26.8883 26.9968 20.8589 27 13.4492C27.0013 9.85816 25.604 6.48137 23.066 3.94116C20.5277 1.40126 17.1527 0.00147656 13.5565 0C6.1463 0 0.115805 6.02859 0.112852 13.4384ZM4.35702 19.8062L4.09092 19.3838C2.97232 17.6052 2.38191 15.5498 2.38275 13.4392C2.38507 7.2804 7.39737 2.26969 13.5608 2.26969C16.5455 2.27095 19.3506 3.43448 21.4604 5.54555C23.5701 7.65682 24.7309 10.4633 24.7302 13.4483C24.7275 19.6072 19.7151 24.6185 13.5565 24.6185H13.5521C11.5468 24.6175 9.58015 24.0789 7.86502 23.0613L7.45685 22.8192L3.22777 23.928L4.35702 19.8062Z" fill="url(#paint1_linear_20_370)"/>
<path d="M10.1964 7.82031C9.94479 7.26101 9.67996 7.24973 9.44065 7.23992C9.24469 7.23148 9.02067 7.23211 8.79687 7.23211C8.57285 7.23211 8.20888 7.31638 7.90123 7.6523C7.59326 7.98853 6.72546 8.80107 6.72546 10.4537C6.72546 12.1064 7.92918 13.7035 8.09698 13.9278C8.26499 14.1517 10.4208 17.6516 13.835 18.998C16.6725 20.1169 17.25 19.8944 17.8658 19.8383C18.4817 19.7824 19.8533 19.0259 20.1331 18.2416C20.4131 17.4573 20.4131 16.785 20.3291 16.6446C20.2452 16.5046 20.0212 16.4205 19.6853 16.2526C19.3492 16.0846 17.6978 15.272 17.3899 15.1599C17.082 15.0479 16.8581 14.992 16.634 15.3283C16.41 15.6641 15.7668 16.4205 15.5707 16.6446C15.3749 16.8691 15.1788 16.8971 14.843 16.729C14.5068 16.5605 13.425 16.2062 12.1416 15.062C11.143 14.1716 10.4689 13.0721 10.2729 12.7358C10.0769 12.4 10.2519 12.2179 10.4204 12.0506C10.5713 11.9001 10.7564 11.6583 10.9245 11.4623C11.092 11.2661 11.1479 11.1261 11.2599 10.9021C11.372 10.6779 11.3159 10.4817 11.232 10.3137C11.1479 10.1457 10.4951 8.48445 10.1964 7.82031Z" fill="white"/>
</g>
<defs>
<linearGradient id="paint0_linear_20_370" x1="1303.71" y1="2618.68" x2="1303.71" y2="0.469543" gradientUnits="userSpaceOnUse">
<stop stopColor="#1FAF38"/>
<stop offset="1" stopColor="#60D669"/>
</linearGradient>
<linearGradient id="paint1_linear_20_370" x1="1350" y1="2712.1" x2="1350" y2="0" gradientUnits="userSpaceOnUse">
<stop stopColor="#F9F9F9"/>
<stop offset="1" stopColor="white"/>
</linearGradient>
<clipPath id="clip0_20_370">
<rect width="27" height="27.2109" fill="white"/>
</clipPath>
</defs>
</svg>
